<svg viewBox="-720 -450 1440 900" width="1440" height="900" style="background-color: rgb(255, 255, 255);" xmlns="http://www.w3.org/2000/svg"><path d="M-105.48388452653863,-0.16580563400151427L-115.74135138937257,-1.6024234285018177M-115.74135138937257,-51.982165962565794L-115.74135138937257,-1.6024234285018177M-115.74135138937257,-1.6024234285018177L-135.12163839384687,16.84734759820486M-105.48388452653863,-50.54554816806549L-105.48388452653863,-0.16580563400151427M-105.48388452653863,-0.16580563400151427L-124.86417153101294,18.28396539270517" style="fill:none;stroke:rgb(0,0,0);stroke-width:1;stroke-linecap:round"></path><path d="M-105.48388452653863,-0.16580563400151468L-115.74135138937255,-1.6024234285018182L-115.74135138937255,-51.9821659625658zM-105.48388452653863,-50.545548168065494L-105.48388452653863,-0.16580563400151468L-115.74135138937255,-51.9821659625658zM-135.12163839384687,16.847347598204863L-115.74135138937255,-1.6024234285018182L-105.48388452653863,-0.16580563400151468z" style="fill:rgb(238,238,238); fill-opacity: 0.4"></path><path d="M-46.708791178324674,4.2752828049204235L-89.32496274605455,-1.693359475515275M-89.32496274605455,-38.99964812816031L-89.32496274605455,-1.693359475515275M-89.32496274605455,-1.693359475515275L-103.67609962753359,11.968728674938088M-107.7656626789899,-34.04514502525556L-118.02312954182382,-35.481762819755865M-118.02312954182382,-45.722217927364674L-118.02312954182382,-35.481762819755865M-118.02312954182382,-35.481762819755865L-121.96247001994762,-31.731563981067776M-105.48388452653863,-50.54554816806549L-115.74135138937257,-51.982165962565794M-115.74135138937257,-51.982165962565794L-135.12163839384687,-33.53239493585912" style="fill:none;stroke:rgb(0,0,0);stroke-width:1;stroke-linecap:round"></path><path d="M-107.7656626789899,-34.045145025255565L-118.02312954182382,-35.48176281975586L-118.02312954182382,-45.722217927364674z" style="fill:rgb(153,221,255); fill-opacity: 0.4"></path><path d="M-107.7656626789899,-44.28560013286437L-107.7656626789899,-34.04514502525556M-107.7656626789899,-34.04514502525556L-111.7050031571137,-30.294946186567472M-107.7656621704944,-44.285600027176166L-107.7656621704944,-34.04514491956736M-107.7656621704944,-34.04514491956736L-111.70500264861819,-30.294946080879278M-107.7656621704944,-34.04514491956736L-92.47316729128438,-29.18409206332362M-105.48388452653863,-50.54554816806549L-124.86417153101294,-32.09577714135881M-107.7656626789899,-44.28560013286437L-118.02312954182382,-45.722217927364674M-118.02312954182382,-45.722217927364674L-121.96247001994762,-41.97201908867659" style="fill:none;stroke:rgb(0,0,0);stroke-width:1;stroke-linecap:round"></path><path d="M-121.96247001994762,-31.731563981067783L-118.02312954182382,-35.48176281975586L-107.7656626789899,-34.045145025255565zM-107.7656626789899,-44.28560013286436L-107.7656626789899,-34.045145025255565L-118.02312954182382,-45.722217927364674zM-118.02312954182382,-45.722217927364674L-118.02312954182382,-35.48176281975586L-121.96247001994762,-41.97201908867658z" style="fill:rgb(153,221,255); fill-opacity: 0.4"></path><path d="M-124.86417153101296,18.283965392705166L-105.48388452653863,-0.16580563400151468L-105.48388452653863,-50.545548168065494z" style="fill:rgb(238,238,238); fill-opacity: 0.4"></path><path d="M-107.7656626789899,-44.28560013286437L-111.7050031571137,-40.53540129417628M-107.7656621704944,-44.285600027176166L-111.70500264861819,-40.53540118848808M-107.7656621704944,-44.285600027176166L-92.47316729128438,-29.18409206332362" style="fill:none;stroke:rgb(0,0,0);stroke-width:1;stroke-linecap:round"></path><path d="M-118.02312954182382,-35.48176281975586L-121.96247001994762,-31.731563981067783L-121.96247001994762,-41.97201908867658z" style="fill:rgb(153,221,255); fill-opacity: 0.4"></path><path d="M-107.76566277158283,-44.28560014583255L-107.76566277158283,-34.04514503822374L-111.70500324970664,-30.294946199535655z" style="fill:rgb(255,187,187); fill-opacity: 0.4"></path><path d="M-111.7050031571137,-30.294946186567472L-107.7656626789899,-34.045145025255565L-107.7656626789899,-44.28560013286436zM-111.7050031571137,-30.294946186567472L-121.96247001994762,-31.731563981067783L-107.7656626789899,-34.045145025255565z" style="fill:rgb(153,221,255); fill-opacity: 0.4"></path><path d="M-115.74135138937255,-51.9821659625658L-115.74135138937255,-1.6024234285018182L-135.12163839384687,-33.53239493585912zM-46.70879117832467,4.2752828049204235L-89.32496274605455,-1.6933594755152739L-89.32496274605455,-38.99964812816032z" style="fill:rgb(238,238,238); fill-opacity: 0.4"></path><path d="M-121.96247001994762,-41.97201908867659L-121.96247001994762,-31.731563981067776M-121.96247001994762,-31.731563981067776L-111.7050031571137,-30.294946186567472" style="fill:none;stroke:rgb(0,0,0);stroke-width:1;stroke-linecap:round"></path><path d="M-111.7050031571137,-40.53540129417629L-107.7656626789899,-44.28560013286436L-118.02312954182382,-45.722217927364674z" style="fill:rgb(153,221,255); fill-opacity: 0.4"></path><path d="M-107.76566277158283,-34.04514503822374L-107.76566277158283,-44.28560014583255L-92.47316799001456,-29.184092259305856z" style="fill:rgb(255,187,187); fill-opacity: 0.4"></path><path d="M-121.96247001994762,-41.97201908867658L-111.7050031571137,-40.53540129417629L-118.02312954182382,-45.722217927364674z" style="fill:rgb(153,221,255); fill-opacity: 0.4"></path><path d="M-111.70500324970664,-30.294946199535655L-107.76566277158283,-34.04514503822374L-92.47316799001456,-29.184092259305856zM-107.76566277158283,-44.28560014583255L-111.70500324970664,-30.294946199535655L-111.70500324970664,-40.53540130714446z" style="fill:rgb(255,187,187); fill-opacity: 0.4"></path><path d="M-111.7050031571137,-40.53540129417629L-111.7050031571137,-30.294946186567472L-107.7656626789899,-44.28560013286436z" style="fill:rgb(153,221,255); fill-opacity: 0.4"></path><path d="M-111.7050031571137,-40.53540129417628L-111.7050031571137,-30.294946186567472M-111.70500264861819,-30.294946080879278L-111.70500264861819,-40.53540118848808M-111.70500264861819,-30.294946080879278L-92.47316729128438,-29.18409206332362" style="fill:none;stroke:rgb(0,0,0);stroke-width:1;stroke-linecap:round"></path><path d="M-121.96247001994762,-31.731563981067783L-111.7050031571137,-30.294946186567472L-111.7050031571137,-40.53540129417629zM-121.96247001994762,-41.97201908867658L-121.96247001994762,-31.731563981067783L-111.7050031571137,-40.53540129417629z" style="fill:rgb(153,221,255); fill-opacity: 0.4"></path><path d="M-121.96247001994762,-41.97201908867659L-111.7050031571137,-40.53540129417628M-46.708791178324674,-33.031005847724614L-89.32496274605455,-38.99964812816031M-89.32496274605455,-38.99964812816031L-103.67609962753359,-25.33755997770695" style="fill:none;stroke:rgb(0,0,0);stroke-width:1;stroke-linecap:round"></path><path d="M-124.86417153101296,18.283965392705166L-135.12163839384687,16.847347598204863L-105.48388452653863,-0.16580563400151468z" style="fill:rgb(238,238,238); fill-opacity: 0.4"></path><path d="M-46.708791178324674,-33.031005847724614L-46.708791178324674,4.2752828049204235M-46.708791178324674,4.2752828049204235L-61.05992805980372,17.937370955373783" style="fill:none;stroke:rgb(0,0,0);stroke-width:1;stroke-linecap:round"></path><path d="M-107.76566277158283,-44.28560014583255L-111.70500324970664,-40.53540130714446L-92.47316799001456,-29.184092259305856z" style="fill:rgb(255,187,187); fill-opacity: 0.4"></path><path d="M-103.67609962753359,11.968728674938088L-89.32496274605455,-1.6933594755152739L-46.70879117832467,4.2752828049204235z" style="fill:rgb(238,238,238); fill-opacity: 0.4"></path><path d="M-111.70500324970664,-40.53540130714446L-111.70500324970664,-30.294946199535655L-92.47316799001456,-29.184092259305856z" style="fill:rgb(255,187,187); fill-opacity: 0.4"></path><path d="M-111.70500264861819,-40.53540118848808L-92.47316729128438,-29.18409206332362" style="fill:none;stroke:rgb(0,0,0);stroke-width:1;stroke-linecap:round"></path><path d="M-124.86417153101296,-32.095777141358816L-105.48388452653863,-50.545548168065494L-115.74135138937255,-51.9821659625658zM-115.74135138937255,-1.6024234285018182L-135.12163839384687,16.847347598204863L-135.12163839384687,-33.53239493585912zM-46.70879117832467,-33.031005847724614L-46.70879117832467,4.2752828049204235L-89.32496274605455,-38.99964812816032zM-89.32496274605455,-38.99964812816032L-89.32496274605455,-1.6933594755152739L-103.67609962753359,-25.33755997770695z" style="fill:rgb(238,238,238); fill-opacity: 0.4"></path><path d="M-52.39570046929066,-9.764632185153765L-95.01187203702052,-15.733274465589465M-95.01187203702052,-20.388026787229833L-95.01187203702052,-15.733274465589465M-95.01187203702052,-15.733274465589465L-96.80248134525863,-14.028638629822153M-52.39570046929066,-14.419384506794133L-95.01187203702052,-20.388026787229833M-95.01187203702052,-20.388026787229833L-96.80248134525863,-18.68339095146252" style="fill:none;stroke:rgb(0,0,0);stroke-width:1;stroke-linecap:round"></path><path d="M-95.01187203702052,-20.388026787229833L-95.01187203702052,-15.733274465589465L-96.80248134525863,-18.68339095146252zM-95.01187203702052,-15.733274465589465L-96.80248134525863,-14.028638629822154L-96.80248134525863,-18.68339095146252z" style="fill:rgb(153,221,255); fill-opacity: 0.4"></path><path d="M-96.80248134525863,-18.68339095146252L-96.80248134525863,-14.028638629822153M-96.80248134525863,-14.028638629822153L-54.18630977752875,-8.059996349386454M22.464621220223627,12.042856525427036L-29.309306307609898,4.791617347930406M-29.309306307609898,-25.890992701392854L-29.309306307609898,4.791617347930406M-29.309306307609898,4.791617347930406L-41.112419203635355,16.028021137191278" style="fill:none;stroke:rgb(0,0,0);stroke-width:1;stroke-linecap:round"></path><path d="M-52.39570046929066,-9.764632185153767L-95.01187203702052,-15.733274465589465L-95.01187203702052,-20.388026787229833z" style="fill:rgb(153,221,255); fill-opacity: 0.4"></path><path d="M-96.80248134525863,-18.68339095146252L-54.18630977752875,-12.71474867102682" style="fill:none;stroke:rgb(0,0,0);stroke-width:1;stroke-linecap:round"></path><path d="M-96.80248134525863,-14.028638629822154L-95.01187203702052,-15.733274465589465L-52.39570046929066,-9.764632185153767z" style="fill:rgb(153,221,255); fill-opacity: 0.4"></path><path d="M-135.12163839384687,-33.53239493585912L-135.12163839384687,16.84734759820486M-135.12163839384687,16.84734759820486L-124.86417153101294,18.28396539270517" style="fill:none;stroke:rgb(0,0,0);stroke-width:1;stroke-linecap:round"></path><path d="M-89.32496274605455,-1.6933594755152739L-103.67609962753359,11.968728674938088L-103.67609962753359,-25.33755997770695zM-124.86417153101296,-32.095777141358816L-124.86417153101296,18.283965392705166L-105.48388452653863,-50.545548168065494z" style="fill:rgb(238,238,238); fill-opacity: 0.4"></path><path d="M-46.708791178324674,-33.031005847724614L-61.05992805980372,-19.368917697271254" style="fill:none;stroke:rgb(0,0,0);stroke-width:1;stroke-linecap:round"></path><path d="M-96.80248134525863,-18.68339095146252L-54.18630977752875,-12.714748671026822L-95.01187203702052,-20.388026787229833z" style="fill:rgb(153,221,255); fill-opacity: 0.4"></path><path d="M-124.86417153101294,-32.09577714135881L-124.86417153101294,18.28396539270517" style="fill:none;stroke:rgb(0,0,0);stroke-width:1;stroke-linecap:round"></path><path d="M-61.05992805980371,17.937370955373787L-46.70879117832467,4.2752828049204235L-46.70879117832467,-33.031005847724614z" style="fill:rgb(238,238,238); fill-opacity: 0.4"></path><path d="M-96.80248134525863,-18.68339095146252L-96.80248134525863,-14.028638629822154L-54.18630977752875,-12.714748671026822zM-52.39570046929066,-14.419384506794133L-52.39570046929066,-9.764632185153767L-95.01187203702052,-20.388026787229833z" style="fill:rgb(153,221,255); fill-opacity: 0.4"></path><path d="M-135.12163839384687,-33.53239493585912L-124.86417153101296,-32.095777141358816L-115.74135138937255,-51.9821659625658zM-61.05992805980371,17.937370955373787L-103.67609962753359,11.968728674938088L-46.70879117832467,4.2752828049204235z" style="fill:rgb(238,238,238); fill-opacity: 0.4"></path><path d="M-54.18630977752875,-8.059996349386456L-96.80248134525863,-14.028638629822154L-52.39570046929066,-9.764632185153767z" style="fill:rgb(153,221,255); fill-opacity: 0.4"></path><path d="M-103.67609962753359,-25.33755997770695L-103.67609962753359,11.968728674938088M-103.67609962753359,11.968728674938088L-61.05992805980372,17.937370955373783" style="fill:none;stroke:rgb(0,0,0);stroke-width:1;stroke-linecap:round"></path><path d="M-54.18630977752875,-12.714748671026822L-52.39570046929066,-14.419384506794133L-95.01187203702052,-20.388026787229833z" style="fill:rgb(153,221,255); fill-opacity: 0.4"></path><path d="M-61.05992805980371,-19.36891769727125L-46.70879117832467,-33.031005847724614L-89.32496274605455,-38.99964812816032zM22.464621220223627,12.042856525427037L-29.309306307609905,4.791617347930404L-29.309306307609905,-25.890992701392857z" style="fill:rgb(238,238,238); fill-opacity: 0.4"></path><path d="M-96.80248134525863,-14.028638629822154L-54.18630977752875,-8.059996349386456L-54.18630977752875,-12.714748671026822z" style="fill:rgb(153,221,255); fill-opacity: 0.4"></path><path d="M-52.39570046929066,-14.419384506794133L-52.39570046929066,-9.764632185153765M-52.39570046929066,-9.764632185153765L-54.18630977752875,-8.059996349386454M-52.39569965258633,-14.419384311257026L-52.39569965258633,-9.764632100594604M-52.39569965258633,-9.764632100594604L-54.18630896082442,-8.059996264827292M-52.39569965258633,-9.764632100594604L-34.72285650599188,-7.9686943214943184" style="fill:none;stroke:rgb(0,0,0);stroke-width:1;stroke-linecap:round"></path><path d="M-135.12163839384687,16.847347598204863L-124.86417153101296,18.283965392705166L-124.86417153101296,-32.095777141358816z" style="fill:rgb(238,238,238); fill-opacity: 0.4"></path><path d="M22.464621220223627,-18.63975352389622L-29.309306307609898,-25.890992701392854M-29.309306307609898,-25.890992701392854L-41.112419203635355,-14.654588912131983M-52.39570046929066,-14.419384506794133L-54.18630977752875,-12.71474867102682M-52.39569965258633,-14.419384311257026L-54.18630896082442,-12.714748475489715M-52.39569965258633,-14.419384311257026L-34.72285650599188,-7.9686943214943184" style="fill:none;stroke:rgb(0,0,0);stroke-width:1;stroke-linecap:round"></path><path d="M-52.3957006063418,-14.41938452598894L-52.3957006063418,-9.764632204348574L-54.18630991457989,-8.059996368581263z" style="fill:rgb(255,187,187); fill-opacity: 0.4"></path><path d="M-54.18630977752875,-8.059996349386456L-52.39570046929066,-9.764632185153767L-52.39570046929066,-14.419384506794133z" style="fill:rgb(153,221,255); fill-opacity: 0.4"></path><path d="M-52.3957006063418,-9.764632204348574L-52.3957006063418,-14.41938452598894L-34.72285743736055,-7.968694397594749zM-52.3957006063418,-14.41938452598894L-54.18630991457989,-8.059996368581263L-54.18630991457989,-12.714748690221631z" style="fill:rgb(255,187,187); fill-opacity: 0.4"></path><path d="M-54.18630977752875,-12.714748671026822L-54.18630977752875,-8.059996349386456L-52.39570046929066,-14.419384506794133z" style="fill:rgb(153,221,255); fill-opacity: 0.4"></path><path d="M-54.18630977752875,-12.71474867102682L-54.18630977752875,-8.059996349386454M-54.18630896082442,-8.059996264827292L-54.18630896082442,-12.714748475489715M-54.18630896082442,-8.059996264827292L-34.72285650599188,-7.9686943214943184" style="fill:none;stroke:rgb(0,0,0);stroke-width:1;stroke-linecap:round"></path><path d="M-54.18630991457989,-8.059996368581263L-52.3957006063418,-9.764632204348574L-34.72285743736055,-7.968694397594749z" style="fill:rgb(255,187,187); fill-opacity: 0.4"></path><path d="M-41.112419203635355,16.028021137191274L-29.309306307609905,4.791617347930404L22.464621220223627,12.042856525427037zM-135.12163839384687,-33.53239493585912L-135.12163839384687,16.847347598204863L-124.86417153101296,-32.095777141358816z" style="fill:rgb(238,238,238); fill-opacity: 0.4"></path><path d="M-52.3957006063418,-14.41938452598894L-54.18630991457989,-12.714748690221631L-34.72285743736055,-7.968694397594749z" style="fill:rgb(255,187,187); fill-opacity: 0.4"></path><path d="M-54.18630896082442,-12.714748475489715L-34.72285650599188,-7.9686943214943184" style="fill:none;stroke:rgb(0,0,0);stroke-width:1;stroke-linecap:round"></path><path d="M-103.67609962753359,-25.33755997770695L-61.05992805980371,-19.36891769727125L-89.32496274605455,-38.99964812816032z" style="fill:rgb(238,238,238); fill-opacity: 0.4"></path><path d="M-54.18630991457989,-12.714748690221631L-54.18630991457989,-8.059996368581263L-34.72285743736055,-7.968694397594749z" style="fill:rgb(255,187,187); fill-opacity: 0.4"></path><path d="M-29.309306307609905,-25.890992701392857L-29.309306307609905,4.791617347930404L-41.112419203635355,-14.654588912131985z" style="fill:rgb(238,238,238); fill-opacity: 0.4"></path><path d="M22.464621220223627,-18.63975352389622L22.464621220223627,12.042856525427036M22.464621220223627,12.042856525427036L10.661508324198174,23.279260314687907" style="fill:none;stroke:rgb(0,0,0);stroke-width:1;stroke-linecap:round"></path><path d="M22.464621220223627,-18.63975352389622L22.464621220223627,12.042856525427037L-29.309306307609905,-25.890992701392857z" style="fill:rgb(238,238,238); fill-opacity: 0.4"></path><path d="M-135.12163839384687,-33.53239493585912L-124.86417153101294,-32.09577714135881" style="fill:none;stroke:rgb(0,0,0);stroke-width:1;stroke-linecap:round"></path><path d="M-61.05992805980371,-19.36891769727125L-61.05992805980371,17.937370955373787L-46.70879117832467,-33.031005847724614z" style="fill:rgb(238,238,238); fill-opacity: 0.4"></path><path d="M16.02534782785894,-0.18934207797075292L-35.748579699974584,-7.440581255467383M-35.748579699974584,-10.233432648451602L-35.748579699974584,-7.440581255467383M-35.748579699974584,-7.440581255467383L-36.82294528491743,-6.417799754006997" style="fill:none;stroke:rgb(0,0,0);stroke-width:1;stroke-linecap:round"></path><path d="M-29.309306307609905,4.791617347930404L-41.112419203635355,16.028021137191274L-41.112419203635355,-14.654588912131985z" style="fill:rgb(238,238,238); fill-opacity: 0.4"></path><path d="M-103.67609962753359,-25.33755997770695L-61.05992805980372,-19.368917697271254" style="fill:none;stroke:rgb(0,0,0);stroke-width:1;stroke-linecap:round"></path><path d="M-103.67609962753359,-25.33755997770695L-103.67609962753359,11.968728674938088L-61.05992805980371,-19.36891769727125zM-103.67609962753359,11.968728674938088L-61.05992805980371,17.937370955373787L-61.05992805980371,-19.36891769727125z" style="fill:rgb(238,238,238); fill-opacity: 0.4"></path><path d="M-61.05992805980372,-19.368917697271254L-61.05992805980372,17.937370955373783M16.02534782785894,-2.9821934709549724L-35.748579699974584,-10.233432648451602M-35.748579699974584,-10.233432648451602L-36.82294528491743,-9.210651146991216" style="fill:none;stroke:rgb(0,0,0);stroke-width:1;stroke-linecap:round"></path><path d="M-35.74857969997459,-10.233432648451604L-35.74857969997459,-7.440581255467383L-36.822945284917445,-9.210651146991218zM-35.74857969997459,-7.440581255467383L-36.822945284917445,-6.417799754006997L-36.822945284917445,-9.210651146991218z" style="fill:rgb(153,221,255); fill-opacity: 0.4"></path><path d="M-36.82294528491743,-9.210651146991216L-36.82294528491743,-6.417799754006997M-36.82294528491743,-6.417799754006997L14.950982242916089,0.8334394234896335M-36.82294528491743,-9.210651146991216L14.950982242916089,-1.959411969494586M-41.112419203635355,-14.654588912131983L-41.112419203635355,16.028021137191278M-41.112419203635355,16.028021137191278L10.661508324198174,23.279260314687907" style="fill:none;stroke:rgb(0,0,0);stroke-width:1;stroke-linecap:round"></path><path d="M16.025347827858944,-0.18934207797075142L-35.74857969997459,-7.440581255467383L-35.74857969997459,-10.233432648451604z" style="fill:rgb(153,221,255); fill-opacity: 0.4"></path><path d="M95.38903647858037,20.283436567940196L39.829384809735565,12.501984742547803M39.829384809735565,-11.37642376585759L39.829384809735565,12.501984742547803M39.829384809735565,12.501984742547803L30.643740206846246,21.246594129234683" style="fill:none;stroke:rgb(0,0,0);stroke-width:1;stroke-linecap:round"></path><path d="M-36.822945284917445,-6.417799754006997L-35.74857969997459,-7.440581255467383L16.025347827858944,-0.18934207797075142z" style="fill:rgb(153,221,255); fill-opacity: 0.4"></path><path d="M22.464621220223627,-18.63975352389622L10.661508324198174,-7.403349734635354" style="fill:none;stroke:rgb(0,0,0);stroke-width:1;stroke-linecap:round"></path><path d="M10.661508324198175,23.279260314687907L-41.112419203635355,16.028021137191274L22.464621220223627,12.042856525427037z" style="fill:rgb(238,238,238); fill-opacity: 0.4"></path><path d="M-36.822945284917445,-9.210651146991218L14.950982242916087,-1.9594119694945853L-35.74857969997459,-10.233432648451604z" style="fill:rgb(153,221,255); fill-opacity: 0.4"></path><path d="M10.661508324198175,23.279260314687907L22.464621220223627,12.042856525427037L22.464621220223627,-18.63975352389622z" style="fill:rgb(238,238,238); fill-opacity: 0.4"></path><path d="M-36.822945284917445,-9.210651146991218L-36.822945284917445,-6.417799754006997L14.950982242916087,-1.9594119694945853z" style="fill:rgb(153,221,255); fill-opacity: 0.4"></path><path d="M10.661508324198175,-7.403349734635352L22.464621220223627,-18.63975352389622L-29.309306307609905,-25.890992701392857z" style="fill:rgb(238,238,238); fill-opacity: 0.4"></path><path d="M16.025347827858944,-2.9821934709549716L16.025347827858944,-0.18934207797075142L-35.74857969997459,-10.233432648451604zM14.950982242916087,0.8334394234896353L-36.822945284917445,-6.417799754006997L16.025347827858944,-0.18934207797075142zM14.950982242916087,-1.9594119694945853L16.025347827858944,-2.9821934709549716L-35.74857969997459,-10.233432648451604z" style="fill:rgb(153,221,255); fill-opacity: 0.4"></path><path d="M-41.112419203635355,-14.654588912131985L10.661508324198175,-7.403349734635352L-29.309306307609905,-25.890992701392857z" style="fill:rgb(238,238,238); fill-opacity: 0.4"></path><path d="M-36.822945284917445,-6.417799754006997L14.950982242916087,0.8334394234896353L14.950982242916087,-1.9594119694945853z" style="fill:rgb(153,221,255); fill-opacity: 0.4"></path><path d="M95.38903647858037,-3.5949719404651983L39.829384809735565,-11.37642376585759M39.829384809735565,-11.37642376585759L30.643740206846246,-2.631814379170707" style="fill:none;stroke:rgb(0,0,0);stroke-width:1;stroke-linecap:round"></path><path d="M95.38903647858037,20.283436567940193L39.82938480973556,12.501984742547805L39.82938480973556,-11.376423765857588z" style="fill:rgb(238,238,238); fill-opacity: 0.4"></path><path d="M92.42066665514923,16.55956250823008L36.86101498630441,8.778110682837688M36.86101498630441,5.985259289853469L36.86101498630441,8.778110682837688M36.86101498630441,8.778110682837688L35.786649401361565,9.800892184298075M92.42066665514923,13.76671111524586L36.86101498630441,5.985259289853469M36.86101498630441,5.985259289853469L35.786649401361565,7.008040791313856M-41.112419203635355,-14.654588912131983L10.661508324198174,-7.403349734635354" style="fill:none;stroke:rgb(0,0,0);stroke-width:1;stroke-linecap:round"></path><path d="M36.86101498630441,5.9852592898534684L36.86101498630441,8.778110682837688L35.78664940136156,7.008040791313855z" style="fill:rgb(153,221,255); fill-opacity: 0.4"></path><path d="M16.025347065707432,-2.9821933665406175L16.025347065707432,-0.18934219551228418M16.025347065707432,-0.18934219551228418L14.950981480764577,0.8334393059481023M16.025347065707432,-0.18934219551228418L34.40003375487236,2.2936399286348528M16.02534782785894,-2.9821934709549724L16.02534782785894,-0.18934207797075292M16.02534782785894,-0.18934207797075292L14.950982242916089,0.8334394234896335" style="fill:none;stroke:rgb(0,0,0);stroke-width:1;stroke-linecap:round"></path><path d="M36.86101498630441,8.778110682837688L35.78664940136156,9.800892184298075L35.78664940136156,7.008040791313855z" style="fill:rgb(153,221,255); fill-opacity: 0.4"></path><path d="M35.786649401361565,7.008040791313856L35.786649401361565,9.800892184298075M35.786649401361565,9.800892184298075L91.34630107020637,17.582344009690466M16.025347065707432,-2.9821933665406175L14.950981480764577,-1.9594118650802304M16.025347065707432,-2.9821933665406175L34.40003375487236,2.2936399286348528M16.02534782785894,-2.9821934709549724L14.950982242916089,-1.959411969494586" style="fill:none;stroke:rgb(0,0,0);stroke-width:1;stroke-linecap:round"></path><path d="M16.02534775672583,-2.9821934809175774L16.02534775672583,-0.18934208793335716L14.950982171782977,0.8334394135270295z" style="fill:rgb(255,187,187); fill-opacity: 0.4"></path><path d="M14.950982242916087,0.8334394234896353L16.025347827858944,-0.18934207797075142L16.025347827858944,-2.9821934709549716z" style="fill:rgb(153,221,255); fill-opacity: 0.4"></path><path d="M-41.112419203635355,-14.654588912131985L-41.112419203635355,16.028021137191274L10.661508324198175,-7.403349734635352z" style="fill:rgb(238,238,238); fill-opacity: 0.4"></path><path d="M35.786649401361565,7.008040791313856L91.34630107020637,14.789492616706246" style="fill:none;stroke:rgb(0,0,0);stroke-width:1;stroke-linecap:round"></path><path d="M39.82938480973556,-11.376423765857588L39.82938480973556,12.501984742547805L30.64374020684625,-2.6318143791707067zM30.64374020684625,21.246594129234687L39.82938480973556,12.501984742547805L95.38903647858037,20.283436567940193z" style="fill:rgb(238,238,238); fill-opacity: 0.4"></path><path d="M16.02534775672583,-2.9821934809175774L14.950982171782977,0.8334394135270295L14.950982171782977,-1.959411979457191z" style="fill:rgb(255,187,187); fill-opacity: 0.4"></path><path d="M14.950982242916087,-1.9594119694945853L14.950982242916087,0.8334394234896353L16.025347827858944,-2.9821934709549716z" style="fill:rgb(153,221,255); fill-opacity: 0.4"></path><path d="M14.950981480764577,0.8334393059481023L14.950981480764577,-1.9594118650802304M14.950981480764577,0.8334393059481023L34.40003375487236,2.2936399286348528M14.950982242916089,-1.959411969494586L14.950982242916089,0.8334394234896335" style="fill:none;stroke:rgb(0,0,0);stroke-width:1;stroke-linecap:round"></path><path d="M16.02534775672583,-0.18934208793335716L16.02534775672583,-2.9821934809175774L34.40003269029084,2.293639827693653zM14.950982171782977,0.8334394135270295L16.02534775672583,-0.18934208793335716L34.40003269029084,2.293639827693653z" style="fill:rgb(255,187,187); fill-opacity: 0.4"></path><path d="M-41.112419203635355,16.028021137191274L10.661508324198175,23.279260314687907L10.661508324198175,-7.403349734635352z" style="fill:rgb(238,238,238); fill-opacity: 0.4"></path><path d="M14.950981480764577,-1.9594118650802304L34.40003375487236,2.2936399286348528" style="fill:none;stroke:rgb(0,0,0);stroke-width:1;stroke-linecap:round"></path><path d="M16.02534775672583,-2.9821934809175774L14.950982171782977,-1.959411979457191L34.40003269029084,2.293639827693653z" style="fill:rgb(255,187,187); fill-opacity: 0.4"></path><path d="M10.661508324198175,-7.403349734635352L10.661508324198175,23.279260314687907L22.464621220223627,-18.63975352389622z" style="fill:rgb(238,238,238); fill-opacity: 0.4"></path><path d="M14.950982171782977,-1.959411979457191L14.950982171782977,0.8334394135270295L34.40003269029084,2.293639827693653z" style="fill:rgb(255,187,187); fill-opacity: 0.4"></path><path d="M92.4206666551492,16.55956250823008L36.86101498630441,8.778110682837688L36.86101498630441,5.9852592898534684zM35.78664940136156,9.800892184298075L36.86101498630441,8.778110682837688L92.4206666551492,16.55956250823008z" style="fill:rgb(153,221,255); fill-opacity: 0.4"></path><path d="M10.661508324198174,-7.403349734635354L10.661508324198174,23.279260314687907" style="fill:none;stroke:rgb(0,0,0);stroke-width:1;stroke-linecap:round"></path><path d="M39.82938480973556,12.501984742547805L30.64374020684625,21.246594129234687L30.64374020684625,-2.6318143791707067z" style="fill:rgb(238,238,238); fill-opacity: 0.4"></path><path d="M35.78664940136156,7.008040791313855L91.34630107020637,14.789492616706246L36.86101498630441,5.9852592898534684z" style="fill:rgb(153,221,255); fill-opacity: 0.4"></path><path d="M95.38903647858037,-3.5949719404651987L95.38903647858037,20.283436567940193L39.82938480973556,-11.376423765857588z" style="fill:rgb(238,238,238); fill-opacity: 0.4"></path><path d="M35.78664940136156,7.008040791313855L35.78664940136156,9.800892184298075L91.34630107020637,14.789492616706246z" style="fill:rgb(153,221,255); fill-opacity: 0.4"></path><path d="M95.38903647858037,-3.5949719404651983L95.38903647858037,20.283436567940196M95.38903647858037,20.283436567940196L86.20339187569105,29.028045954627075M30.643740206846246,-2.631814379170707L30.643740206846246,21.246594129234683M30.643740206846246,21.246594129234683L86.20339187569105,29.028045954627075" style="fill:none;stroke:rgb(0,0,0);stroke-width:1;stroke-linecap:round"></path><path d="M92.4206666551492,13.76671111524586L92.4206666551492,16.55956250823008L36.86101498630441,5.9852592898534684zM91.34630107020637,17.582344009690466L35.78664940136156,9.800892184298075L92.4206666551492,16.55956250823008zM91.34630107020637,14.789492616706246L92.4206666551492,13.76671111524586L36.86101498630441,5.9852592898534684zM35.78664940136156,9.800892184298075L91.34630107020637,17.582344009690466L91.34630107020637,14.789492616706246z" style="fill:rgb(153,221,255); fill-opacity: 0.4"></path><path d="M169.62218669022562,30.680220292611168L114.0625350213808,22.89876846721878M114.0625350213808,-0.9796400411866129L114.0625350213808,22.89876846721878M114.0625350213808,22.89876846721878L104.8768904184915,31.643377853905662" style="fill:none;stroke:rgb(0,0,0);stroke-width:1;stroke-linecap:round"></path><path d="M86.20339187569105,29.028045954627075L30.64374020684625,21.246594129234687L95.38903647858037,20.283436567940193z" style="fill:rgb(238,238,238); fill-opacity: 0.4"></path><path d="M95.38903647858037,-3.5949719404651983L86.20339187569105,5.149637446221684M92.42066665514923,13.76671111524586L92.42066665514923,16.55956250823008M92.42066665514923,16.55956250823008L91.34630107020637,17.582344009690466M92.42067056330909,13.766711632689617L92.42067056330909,16.559563025673835M92.42067056330909,16.559563025673835L91.34630497836622,17.58234452713422M92.42067056330909,16.559563025673835L110.55698484246348,18.289859773143956" style="fill:none;stroke:rgb(0,0,0);stroke-width:1;stroke-linecap:round"></path><path d="M86.20339187569105,5.149637446221683L95.38903647858037,-3.5949719404651987L39.82938480973556,-11.376423765857588zM86.20339187569105,29.028045954627075L95.38903647858037,20.283436567940193L95.38903647858037,-3.5949719404651987z" style="fill:rgb(238,238,238); fill-opacity: 0.4"></path><path d="M92.42066665514923,13.76671111524586L91.34630107020637,14.789492616706246M92.42067056330909,13.766711632689617L91.34630497836622,14.789493134150003M92.42067056330909,13.766711632689617L110.55698484246348,18.289859773143956" style="fill:none;stroke:rgb(0,0,0);stroke-width:1;stroke-linecap:round"></path><path d="M30.64374020684625,-2.6318143791707067L86.20339187569105,5.149637446221683L39.82938480973556,-11.376423765857588z" style="fill:rgb(238,238,238); fill-opacity: 0.4"></path><path d="M91.34630107020637,17.582344009690466L92.4206666551492,16.55956250823008L92.4206666551492,13.76671111524586z" style="fill:rgb(153,221,255); fill-opacity: 0.4"></path><path d="M92.42066739073653,13.766711218269133L92.42066739073653,16.559562611253355L91.34630180579369,17.58234411271374z" style="fill:rgb(255,187,187); fill-opacity: 0.4"></path><path d="M30.643740206846246,-2.631814379170707L86.20339187569105,5.149637446221684" style="fill:none;stroke:rgb(0,0,0);stroke-width:1;stroke-linecap:round"></path><path d="M91.34630107020637,14.789492616706246L91.34630107020637,17.582344009690466L92.4206666551492,13.76671111524586z" style="fill:rgb(153,221,255); fill-opacity: 0.4"></path><path d="M92.42066739073653,13.766711218269133L91.34630180579369,17.58234411271374L91.34630180579369,14.789492719729521z" style="fill:rgb(255,187,187); fill-opacity: 0.4"></path><path d="M91.34630107020637,14.789492616706246L91.34630107020637,17.582344009690466M91.34630497836622,17.58234452713422L91.34630497836622,14.789493134150003M91.34630497836622,17.58234452713422L110.55698484246348,18.289859773143956" style="fill:none;stroke:rgb(0,0,0);stroke-width:1;stroke-linecap:round"></path><path d="M92.42066739073653,16.559562611253355L92.42066739073653,13.766711218269133L110.55698166989092,18.289859358723472z" style="fill:rgb(255,187,187); fill-opacity: 0.4"></path><path d="M91.34630497836622,14.789493134150003L110.55698484246348,18.289859773143956" style="fill:none;stroke:rgb(0,0,0);stroke-width:1;stroke-linecap:round"></path><path d="M91.34630180579369,17.58234411271374L92.42066739073653,16.559562611253355L110.55698166989092,18.289859358723472zM92.42066739073653,13.766711218269133L91.34630180579369,14.789492719729521L110.55698166989092,18.289859358723472zM91.34630180579369,14.789492719729521L91.34630180579369,17.58234411271374L110.55698166989092,18.289859358723472z" style="fill:rgb(255,187,187); fill-opacity: 0.4"></path><path d="M30.64374020684625,-2.6318143791707067L30.64374020684625,21.246594129234687L86.20339187569105,5.149637446221683z" style="fill:rgb(238,238,238); fill-opacity: 0.4"></path><path d="M169.62218669022562,6.801811784205778L114.0625350213808,-0.9796400411866129M114.0625350213808,-0.9796400411866129L104.8768904184915,7.764969345500269" style="fill:none;stroke:rgb(0,0,0);stroke-width:1;stroke-linecap:round"></path><path d="M169.62218669022562,30.680220292611168L114.06253502138082,22.898768467218783L114.06253502138082,-0.9796400411866101zM30.64374020684625,21.246594129234687L86.20339187569105,29.028045954627075L86.20339187569105,5.149637446221683zM114.06253502138082,-0.9796400411866101L114.06253502138082,22.898768467218783L104.8768904184915,7.764969345500273zM104.8768904184915,31.643377853905662L114.06253502138082,22.898768467218783L169.62218669022562,30.680220292611168zM86.20339187569105,5.149637446221683L86.20339187569105,29.028045954627075L95.38903647858037,-3.5949719404651987z" style="fill:rgb(238,238,238); fill-opacity: 0.4"></path><path d="M86.20339187569105,5.149637446221684L86.20339187569105,29.028045954627075" style="fill:none;stroke:rgb(0,0,0);stroke-width:1;stroke-linecap:round"></path><path d="M114.06253502138082,22.898768467218783L104.8768904184915,31.643377853905662L104.8768904184915,7.764969345500273z" style="fill:rgb(238,238,238); fill-opacity: 0.4"></path><path d="M161.90708870293096,36.14016214649684L106.34743703408616,28.35871032110445M106.34743703408616,25.56585892812023L106.34743703408616,28.35871032110445M106.34743703408616,28.35871032110445L105.2730714491433,29.381491822564833" style="fill:none;stroke:rgb(0,0,0);stroke-width:1;stroke-linecap:round"></path><path d="M169.62218669022562,6.8018117842057775L169.62218669022562,30.680220292611168L114.06253502138082,-0.9796400411866101z" style="fill:rgb(238,238,238); fill-opacity: 0.4"></path><path d="M169.62218669022562,6.801811784205778L169.62218669022562,30.680220292611168M169.62218669022562,30.680220292611168L160.4365420873363,39.42482967929805M161.90708870293096,33.34731075351262L106.34743703408616,25.56585892812023M106.34743703408616,25.56585892812023L105.2730714491433,26.588640429580614" style="fill:none;stroke:rgb(0,0,0);stroke-width:1;stroke-linecap:round"></path><path d="M106.34743703408618,25.565858928120235L106.34743703408618,28.35871032110445L105.27307144914332,26.58864042958062zM106.34743703408618,28.35871032110445L105.27307144914332,29.38149182256484L105.27307144914332,26.58864042958062z" style="fill:rgb(153,221,255); fill-opacity: 0.4"></path><path d="M105.2730714491433,26.588640429580614L105.2730714491433,29.381491822564833M105.2730714491433,29.381491822564833L160.8327231179881,37.16294364795723M104.8768904184915,7.764969345500269L104.8768904184915,31.643377853905662M104.8768904184915,31.643377853905662L160.4365420873363,39.42482967929805M105.2730714491433,26.588640429580614L160.8327231179881,34.370092254973" style="fill:none;stroke:rgb(0,0,0);stroke-width:1;stroke-linecap:round"></path><path d="M161.90708870293096,36.140162146496834L106.34743703408618,28.35871032110445L106.34743703408618,25.565858928120235z" style="fill:rgb(153,221,255); fill-opacity: 0.4"></path><path d="M240.06961195413913,40.5467912564005L188.29568442630563,33.29555207890387M188.29568442630563,9.417143570498478L188.29568442630563,33.29555207890387M188.29568442630563,33.29555207890387L179.11003982341632,42.04016146559076" style="fill:none;stroke:rgb(0,0,0);stroke-width:1;stroke-linecap:round"></path><path d="M105.27307144914332,29.38149182256484L106.34743703408618,28.35871032110445L161.90708870293096,36.140162146496834z" style="fill:rgb(153,221,255); fill-opacity: 0.4"></path><path d="M160.43654208733628,39.42482967929805L104.8768904184915,31.643377853905662L169.62218669022562,30.680220292611168z" style="fill:rgb(238,238,238); fill-opacity: 0.4"></path><path d="M105.27307144914332,26.58864042958062L160.8327231179881,34.370092254973L106.34743703408618,25.565858928120235z" style="fill:rgb(153,221,255); fill-opacity: 0.4"></path><path d="M169.62218669022562,6.801811784205778L160.4365420873363,15.54642117089266" style="fill:none;stroke:rgb(0,0,0);stroke-width:1;stroke-linecap:round"></path><path d="M105.27307144914332,26.58864042958062L105.27307144914332,29.38149182256484L160.8327231179881,34.370092254973z" style="fill:rgb(153,221,255); fill-opacity: 0.4"></path><path d="M160.43654208733628,15.54642117089266L169.62218669022562,6.8018117842057775L114.06253502138082,-0.9796400411866101zM160.43654208733628,39.42482967929805L169.62218669022562,30.680220292611168L169.62218669022562,6.8018117842057775zM104.8768904184915,7.764969345500273L160.43654208733628,15.54642117089266L114.06253502138082,-0.9796400411866101z" style="fill:rgb(238,238,238); fill-opacity: 0.4"></path><path d="M104.8768904184915,7.764969345500269L160.4365420873363,15.54642117089266" style="fill:none;stroke:rgb(0,0,0);stroke-width:1;stroke-linecap:round"></path><path d="M161.90708870293096,33.347310753512616L161.90708870293096,36.140162146496834L106.34743703408618,25.565858928120235zM160.8327231179881,37.16294364795723L105.27307144914332,29.38149182256484L161.90708870293096,36.140162146496834zM160.8327231179881,34.370092254973L161.90708870293096,33.347310753512616L106.34743703408618,25.565858928120235z" style="fill:rgb(153,221,255); fill-opacity: 0.4"></path><path d="M104.8768904184915,7.764969345500273L104.8768904184915,31.643377853905662L160.43654208733628,15.54642117089266z" style="fill:rgb(238,238,238); fill-opacity: 0.4"></path><path d="M105.27307144914332,29.38149182256484L160.8327231179881,37.16294364795723L160.8327231179881,34.370092254973z" style="fill:rgb(153,221,255); fill-opacity: 0.4"></path><path d="M240.06961195413913,40.54679125640051L188.29568442630557,33.29555207890387L188.29568442630557,9.417143570498485z" style="fill:rgb(238,238,238); fill-opacity: 0.4"></path><path d="M240.06961195413913,16.66838274799511L188.29568442630563,9.417143570498478M188.29568442630563,9.417143570498478L179.11003982341632,18.16175295718536" style="fill:none;stroke:rgb(0,0,0);stroke-width:1;stroke-linecap:round"></path><path d="M104.8768904184915,31.643377853905662L160.43654208733628,39.42482967929805L160.43654208733628,15.54642117089266z" style="fill:rgb(238,238,238); fill-opacity: 0.4"></path><path d="M161.90708870293096,33.34731075351262L161.90708870293096,36.14016214649684M161.90708870293096,36.14016214649684L160.8327231179881,37.16294364795723M161.90709124156837,33.347311188581386L161.90709124156837,36.14016258156561M161.90709124156837,36.14016258156561L160.83272565662548,37.162944083026M161.90709124156837,36.14016258156561L180.04340552072276,37.87045932903573" style="fill:none;stroke:rgb(0,0,0);stroke-width:1;stroke-linecap:round"></path><path d="M179.11003982341626,42.04016146559076L188.29568442630557,33.29555207890387L240.06961195413913,40.54679125640051zM188.29568442630557,9.417143570498485L188.29568442630557,33.29555207890387L179.11003982341626,18.161752957185367z" style="fill:rgb(238,238,238); fill-opacity: 0.4"></path><path d="M161.90708870293096,33.34731075351262L160.8327231179881,34.370092254973M161.90709124156837,33.347311188581386L160.83272565662548,34.37009269004177M161.90709124156837,33.347311188581386L180.04340552072276,37.87045932903573" style="fill:none;stroke:rgb(0,0,0);stroke-width:1;stroke-linecap:round"></path><path d="M160.8327231179881,37.16294364795723L161.90708870293096,36.140162146496834L161.90708870293096,33.347310753512616z" style="fill:rgb(153,221,255); fill-opacity: 0.4"></path><path d="M161.90708943851828,33.34731085653589L161.90708943851828,36.14016224952011L160.83272385357543,37.162943750980496z" style="fill:rgb(255,187,187); fill-opacity: 0.4"></path><path d="M160.43654208733628,15.54642117089266L160.43654208733628,39.42482967929805L169.62218669022562,6.8018117842057775z" style="fill:rgb(238,238,238); fill-opacity: 0.4"></path><path d="M160.8327231179881,34.370092254973L160.8327231179881,37.16294364795723L161.90708870293096,33.347310753512616z" style="fill:rgb(153,221,255); fill-opacity: 0.4"></path><path d="M161.90708943851828,33.34731085653589L160.83272385357543,37.162943750980496L160.83272385357543,34.37009235799628z" style="fill:rgb(255,187,187); fill-opacity: 0.4"></path><path d="M160.8327231179881,34.370092254973L160.8327231179881,37.16294364795723M160.83272565662548,37.162944083026L160.83272565662548,34.37009269004177M160.83272565662548,37.162944083026L180.04340552072276,37.87045932903573M160.4365420873363,15.54642117089266L160.4365420873363,39.42482967929805" style="fill:none;stroke:rgb(0,0,0);stroke-width:1;stroke-linecap:round"></path><path d="M161.90708943851828,36.14016224952011L161.90708943851828,33.34731085653589L180.04340371767265,37.87045899699023z" style="fill:rgb(255,187,187); fill-opacity: 0.4"></path><path d="M160.83272565662548,34.37009269004177L180.04340552072276,37.87045932903573" style="fill:none;stroke:rgb(0,0,0);stroke-width:1;stroke-linecap:round"></path><path d="M160.83272385357543,37.162943750980496L161.90708943851828,36.14016224952011L180.04340371767265,37.87045899699023zM161.90708943851828,33.34731085653589L160.83272385357543,34.37009235799628L180.04340371767265,37.87045899699023zM160.83272385357543,34.37009235799628L160.83272385357543,37.162943750980496L180.04340371767265,37.87045899699023z" style="fill:rgb(255,187,187); fill-opacity: 0.4"></path><path d="M188.29568442630557,33.29555207890387L179.11003982341626,42.04016146559076L179.11003982341626,18.161752957185367z" style="fill:rgb(238,238,238); fill-opacity: 0.4"></path><path d="M240.06961195413913,16.66838274799511L240.06961195413913,40.5467912564005M240.06961195413913,40.5467912564005L230.88396735124982,49.29140064308738" style="fill:none;stroke:rgb(0,0,0);stroke-width:1;stroke-linecap:round"></path><path d="M240.06961195413913,16.668382747995114L240.06961195413913,40.54679125640051L188.29568442630557,9.417143570498485z" style="fill:rgb(238,238,238); fill-opacity: 0.4"></path><path d="M179.11003982341632,18.16175295718536L179.11003982341632,42.04016146559076M179.11003982341632,42.04016146559076L230.88396735124982,49.29140064308738M265.09905384377277,71.26398155211697L258.62731290279356,70.3575766549299M258.62731290279356,-0.6238520584833664L258.62731290279356,70.3575766549299M258.62731290279356,70.3575766549299L256.14500130899336,72.7207037083105" style="fill:none;stroke:rgb(0,0,0);stroke-width:1;stroke-linecap:round"></path><path d="M230.88396735124982,49.291400643087385L179.11003982341626,42.04016146559076L240.06961195413913,40.54679125640051z" style="fill:rgb(238,238,238); fill-opacity: 0.4"></path><path d="M265.09905384377277,0.2825528387037146L265.09905384377277,71.26398155211697M265.09905384377277,71.26398155211697L262.6167422499725,73.62710860549758M240.06961195413913,16.66838274799511L230.88396735124982,25.41299213468199" style="fill:none;stroke:rgb(0,0,0);stroke-width:1;stroke-linecap:round"></path><path d="M256.14500130899336,72.72070370831051L258.62731290279356,70.3575766549299L265.09905384377277,71.26398155211699zM230.88396735124982,49.291400643087385L240.06961195413913,40.54679125640051L240.06961195413913,16.668382747995114zM230.88396735124982,25.412992134681996L240.06961195413913,16.668382747995114L188.29568442630557,9.417143570498485zM179.11003982341626,18.161752957185367L230.88396735124982,25.412992134681996L188.29568442630557,9.417143570498485zM262.61674224997256,73.62710860549758L256.14500130899336,72.72070370831051L265.09905384377277,71.26398155211699z" style="fill:rgb(238,238,238); fill-opacity: 0.4"></path><path d="M256.14500130899336,1.7392749948972304L256.14500130899336,72.7207037083105M256.14500130899336,72.7207037083105L262.6167422499725,73.62710860549758M179.11003982341632,18.16175295718536L230.88396735124982,25.41299213468199M262.6167422499725,2.645679892084311L262.6167422499725,73.62710860549758M290.2442918385945,74.78571814004546L283.77255089761536,73.87931324285836M283.77255089761536,2.8978845294451014L283.77255089761536,73.87931324285836M283.77255089761536,73.87931324285836L281.2902393038151,76.24244029623897" style="fill:none;stroke:rgb(0,0,0);stroke-width:1;stroke-linecap:round"></path><path d="M179.11003982341626,18.161752957185367L179.11003982341626,42.04016146559076L230.88396735124982,25.412992134681996zM265.09905384377277,71.26398155211699L258.62731290279356,70.3575766549299L258.62731290279356,-0.6238520584833638z" style="fill:rgb(238,238,238); fill-opacity: 0.4"></path><path d="M239.64633489674057,33.563860717588454L250.22798323732852,35.04588201041994M290.2442918385945,3.8042894266321827L290.2442918385945,74.78571814004546M290.2442918385945,74.78571814004546L287.76198024479424,77.14884519342604" style="fill:none;stroke:rgb(0,0,0);stroke-width:1;stroke-linecap:round"></path><path d="M281.2902393038151,76.24244029623897L283.77255089761536,73.87931324285837L290.24429183859456,74.78571814004546zM179.11003982341626,42.04016146559076L230.88396735124982,49.291400643087385L230.88396735124982,25.412992134681996zM258.62731290279356,70.3575766549299L256.14500130899336,72.72070370831051L256.14500130899336,1.739274994897233zM262.61674224997256,73.62710860549758L265.09905384377277,71.26398155211699L265.09905384377277,0.2825528387037173zM230.88396735124982,25.412992134681996L230.88396735124982,49.291400643087385L240.06961195413913,16.668382747995114zM287.7619802447943,77.14884519342606L281.2902393038151,76.24244029623897L290.24429183859456,74.78571814004546z" style="fill:rgb(238,238,238); fill-opacity: 0.4"></path><path d="M281.2902393038151,5.261011582825699L281.2902393038151,76.24244029623897M281.2902393038151,76.24244029623897L287.76198024479424,77.14884519342604" style="fill:none;stroke:rgb(0,0,0);stroke-width:1;stroke-linecap:round"></path><path d="M249.37649789072512,36.57568334549164L250.22798323732852,37.37325817124012L256.45248226120384,35.91765924149728z" style="fill:rgb(0,0,0)"></path><path d="M230.88396735124982,25.41299213468199L230.88396735124982,49.29140064308738" style="fill:none;stroke:rgb(0,0,0);stroke-width:1;stroke-linecap:round"></path><path d="M250.7542301018935,32.66201522959249L249.70173637276352,33.663975020229735L256.45248226120384,35.91765924149728zM249.70173637276352,33.663975020229735L249.37649789072512,36.57568334549164L256.45248226120384,35.91765924149728z" style="fill:rgb(0,0,0)"></path><path d="M256.14500130899336,72.72070370831051L262.61674224997256,73.62710860549758L262.61674224997256,2.6456798920843143z" style="fill:rgb(238,238,238); fill-opacity: 0.4"></path><path d="M287.76198024479424,6.167416480012779L287.76198024479424,77.14884519342604" style="fill:none;stroke:rgb(0,0,0);stroke-width:1;stroke-linecap:round"></path><path d="M290.24429183859456,74.78571814004546L283.77255089761536,73.87931324285837L283.77255089761536,2.897884529445104z" style="fill:rgb(238,238,238); fill-opacity: 0.4"></path><path d="M315.38952983341625,74.97063029603433L308.9177888924371,74.06422539884724M308.9177888924371,9.756445549313158L308.9177888924371,74.06422539884724M308.9177888924371,74.06422539884724L306.43547729863684,76.42735245222784M264.79157289156234,37.08559730551693L275.3732212321503,38.56761859834841" style="fill:none;stroke:rgb(0,0,0);stroke-width:1;stroke-linecap:round"></path><path d="M265.09905384377277,0.2825528387037173L265.09905384377277,71.26398155211699L258.62731290279356,-0.6238520584833638zM258.62731290279356,-0.6238520584833638L258.62731290279356,70.3575766549299L256.14500130899336,1.739274994897233z" style="fill:rgb(238,238,238); fill-opacity: 0.4"></path><path d="M315.38952983341625,10.66285044650024L315.38952983341625,74.97063029603433M315.38952983341625,74.97063029603433L312.90721823961604,77.33375734941492" style="fill:none;stroke:rgb(0,0,0);stroke-width:1;stroke-linecap:round"></path><path d="M306.43547729863684,76.42735245222784L308.91778889243704,74.06422539884726L315.38952983341625,74.97063029603433zM283.77255089761536,73.87931324285837L281.2902393038151,76.24244029623897L281.2902393038151,5.2610115828257005zM287.7619802447943,77.14884519342606L290.24429183859456,74.78571814004546L290.24429183859456,3.804289426632185z" style="fill:rgb(238,238,238); fill-opacity: 0.4"></path><path d="M274.52173588554683,40.09741993342011L275.3732212321503,40.89499475916859L281.5977202560255,39.439395829425756zM275.8994680967153,36.18375181752096L274.8469743675853,37.1857116081582L281.5977202560255,39.439395829425756z" style="fill:rgb(0,0,0)"></path><path d="M312.90721823961604,77.33375734941494L306.43547729863684,76.42735245222784L315.38952983341625,74.97063029603433zM262.61674224997256,2.6456798920843143L262.61674224997256,73.62710860549758L265.09905384377277,0.2825528387037173z" style="fill:rgb(238,238,238); fill-opacity: 0.4"></path><path d="M306.43547729863684,12.119572602693756L306.43547729863684,76.42735245222784M306.43547729863684,76.42735245222784L312.90721823961604,77.33375734941492" style="fill:none;stroke:rgb(0,0,0);stroke-width:1;stroke-linecap:round"></path><path d="M256.14500130899336,1.739274994897233L256.14500130899336,72.72070370831051L262.61674224997256,2.6456798920843143z" style="fill:rgb(238,238,238); fill-opacity: 0.4"></path><path d="M274.8469743675853,37.1857116081582L274.52173588554683,40.09741993342011L281.5977202560255,39.439395829425756z" style="fill:rgb(0,0,0)"></path><path d="M281.2902393038151,76.24244029623897L287.7619802447943,77.14884519342606L287.7619802447943,6.167416480012782z" style="fill:rgb(238,238,238); fill-opacity: 0.4"></path><path d="M312.90721823961604,13.025977499880836L312.90721823961604,77.33375734941492M265.09905384377277,0.2825528387037146L258.62731290279356,-0.6238520584833664M258.62731290279356,-0.6238520584833664L256.14500130899336,1.7392749948972304" style="fill:none;stroke:rgb(0,0,0);stroke-width:1;stroke-linecap:round"></path><path d="M315.38952983341625,74.97063029603433L308.91778889243704,74.06422539884726L308.91778889243704,9.756445549313161z" style="fill:rgb(238,238,238); fill-opacity: 0.4"></path><path d="M289.9368108863841,40.60733389344539L300.518459226972,42.089355186276876" style="fill:none;stroke:rgb(0,0,0);stroke-width:1;stroke-linecap:round"></path><path d="M290.24429183859456,3.804289426632185L290.24429183859456,74.78571814004546L283.77255089761536,2.897884529445104zM283.77255089761536,2.897884529445104L283.77255089761536,73.87931324285837L281.2902393038151,5.2610115828257005z" style="fill:rgb(238,238,238); fill-opacity: 0.4"></path><path d="M265.09905384377277,0.2825528387037146L262.6167422499725,2.645679892084311" style="fill:none;stroke:rgb(0,0,0);stroke-width:1;stroke-linecap:round"></path><path d="M262.61674224997256,2.6456798920843143L265.09905384377277,0.2825528387037173L258.62731290279356,-0.6238520584833638zM308.91778889243704,74.06422539884726L306.43547729863684,76.42735245222784L306.43547729863684,12.119572602693758zM312.90721823961604,77.33375734941494L315.38952983341625,74.97063029603433L315.38952983341625,10.662850446500244zM256.14500130899336,1.739274994897233L262.61674224997256,2.6456798920843143L258.62731290279356,-0.6238520584833638z" style="fill:rgb(238,238,238); fill-opacity: 0.4"></path><path d="M299.66697388036863,43.61915652134857L300.518459226972,44.416731347097056L306.74295825084727,42.96113241735422zM301.044706091537,39.70548840544943L299.99221236240703,40.707448196086666L306.74295825084727,42.96113241735422z" style="fill:rgb(0,0,0)"></path><path d="M256.14500130899336,1.7392749948972304L262.6167422499725,2.645679892084311" style="fill:none;stroke:rgb(0,0,0);stroke-width:1;stroke-linecap:round"></path><path d="M287.7619802447943,6.167416480012782L287.7619802447943,77.14884519342606L290.24429183859456,3.804289426632185zM281.2902393038151,5.2610115828257005L281.2902393038151,76.24244029623897L287.7619802447943,6.167416480012782z" style="fill:rgb(238,238,238); fill-opacity: 0.4"></path><path d="M299.99221236240703,40.707448196086666L299.66697388036863,43.61915652134857L306.74295825084727,42.96113241735422z" style="fill:rgb(0,0,0)"></path><path d="M306.43547729863684,76.42735245222784L312.90721823961604,77.33375734941494L312.90721823961604,13.02597749988084z" style="fill:rgb(238,238,238); fill-opacity: 0.4"></path><path d="M290.2442918385945,3.8042894266321827L283.77255089761536,2.8978845294451014M283.77255089761536,2.8978845294451014L281.2902393038151,5.261011582825699" style="fill:none;stroke:rgb(0,0,0);stroke-width:1;stroke-linecap:round"></path><path d="M315.38952983341625,10.662850446500244L315.38952983341625,74.97063029603433L308.91778889243704,9.756445549313161zM308.91778889243704,9.756445549313161L308.91778889243704,74.06422539884726L306.43547729863684,12.119572602693758z" style="fill:rgb(238,238,238); fill-opacity: 0.4"></path><path d="M290.2442918385945,3.8042894266321827L287.76198024479424,6.167416480012779" style="fill:none;stroke:rgb(0,0,0);stroke-width:1;stroke-linecap:round"></path><path d="M287.7619802447943,6.167416480012782L290.24429183859456,3.804289426632185L283.77255089761536,2.897884529445104zM281.2902393038151,5.2610115828257005L287.7619802447943,6.167416480012782L283.77255089761536,2.897884529445104zM312.90721823961604,13.02597749988084L312.90721823961604,77.33375734941494L315.38952983341625,10.662850446500244z" style="fill:rgb(238,238,238); fill-opacity: 0.4"></path><path d="M281.2902393038151,5.261011582825699L287.76198024479424,6.167416480012779" style="fill:none;stroke:rgb(0,0,0);stroke-width:1;stroke-linecap:round"></path><path d="M306.43547729863684,12.119572602693758L306.43547729863684,76.42735245222784L312.90721823961604,13.02597749988084z" style="fill:rgb(238,238,238); fill-opacity: 0.4"></path><path d="M315.38952983341625,10.66285044650024L308.9177888924371,9.756445549313158M308.9177888924371,9.756445549313158L306.43547729863684,12.119572602693756M315.38952983341625,10.66285044650024L312.90721823961604,13.025977499880836" style="fill:none;stroke:rgb(0,0,0);stroke-width:1;stroke-linecap:round"></path><path d="M312.90721823961604,13.02597749988084L315.38952983341625,10.662850446500244L308.91778889243704,9.756445549313161zM306.43547729863684,12.119572602693758L312.90721823961604,13.02597749988084L308.91778889243704,9.756445549313161z" style="fill:rgb(238,238,238); fill-opacity: 0.4"></path><path d="M306.43547729863684,12.119572602693756L312.90721823961604,13.025977499880836" style="fill:none;stroke:rgb(0,0,0);stroke-width:1;stroke-linecap:round"></path></svg>