<svg xmlns="http://www.w3.org/2000/svg" width="1440" height="900" style="cursor: move;"><g><rect class="rect" id="0_0" width="128" height="128" x="208" y="358" style="fill: rgb(160, 160, 160); stroke: black; stroke-width: 1; opacity: 0.8;"></rect><rect class="rect" id="0_1" width="128" height="128" x="216" y="366" style="fill: rgb(224, 224, 224); stroke: black; stroke-width: 1; opacity: 0.8;"></rect><rect class="rect" id="0_2" width="128" height="128" x="224" y="374" style="fill: rgb(160, 160, 160); stroke: black; stroke-width: 1; opacity: 0.8;"></rect><rect class="rect" id="0_3" width="128" height="128" x="232" y="382" style="fill: rgb(224, 224, 224); stroke: black; stroke-width: 1; opacity: 0.8;"></rect><rect class="rect" id="0_4" width="128" height="128" x="240" y="390" style="fill: rgb(160, 160, 160); stroke: black; stroke-width: 1; opacity: 0.8;"></rect><rect class="rect" id="0_5" width="128" height="128" x="248" y="398" style="fill: rgb(224, 224, 224); stroke: black; stroke-width: 1; opacity: 0.8;"></rect><rect class="rect" id="0_6" width="128" height="128" x="256" y="406" style="fill: rgb(160, 160, 160); stroke: black; stroke-width: 1; opacity: 0.8;"></rect><rect class="rect" id="0_7" width="128" height="128" x="264" y="414" style="fill: rgb(224, 224, 224); stroke: black; stroke-width: 1; opacity: 0.8;"></rect><rect class="rect" id="1_0" width="64" height="64" x="432" y="390" style="fill: rgb(160, 160, 160); stroke: black; stroke-width: 1; opacity: 0.8;"></rect><rect class="rect" id="1_1" width="64" height="64" x="440" y="398" style="fill: rgb(224, 224, 224); stroke: black; stroke-width: 1; opacity: 0.8;"></rect><rect class="rect" id="1_2" width="64" height="64" x="448" y="406" style="fill: rgb(160, 160, 160); stroke: black; stroke-width: 1; opacity: 0.8;"></rect><rect class="rect" id="1_3" width="64" height="64" x="456" y="414" style="fill: rgb(224, 224, 224); stroke: black; stroke-width: 1; opacity: 0.8;"></rect><rect class="rect" id="1_4" width="64" height="64" x="464" y="422" style="fill: rgb(160, 160, 160); stroke: black; stroke-width: 1; opacity: 0.8;"></rect><rect class="rect" id="1_5" width="64" height="64" x="472" y="430" style="fill: rgb(224, 224, 224); stroke: black; stroke-width: 1; opacity: 0.8;"></rect><rect class="rect" id="1_6" width="64" height="64" x="480" y="438" style="fill: rgb(160, 160, 160); stroke: black; stroke-width: 1; opacity: 0.8;"></rect><rect class="rect" id="1_7" width="64" height="64" x="488" y="446" style="fill: rgb(224, 224, 224); stroke: black; stroke-width: 1; opacity: 0.8;"></rect><rect class="rect" id="2_0" width="48" height="48" x="562" y="334" style="fill: rgb(160, 160, 160); stroke: black; stroke-width: 1; opacity: 0.8;"></rect><rect class="rect" id="2_1" width="48" height="48" x="570" y="342" style="fill: rgb(224, 224, 224); stroke: black; stroke-width: 1; opacity: 0.8;"></rect><rect class="rect" id="2_2" width="48" height="48" x="578" y="350" style="fill: rgb(160, 160, 160); stroke: black; stroke-width: 1; opacity: 0.8;"></rect><rect class="rect" id="2_3" width="48" height="48" x="586" y="358" style="fill: rgb(224, 224, 224); stroke: black; stroke-width: 1; opacity: 0.8;"></rect><rect class="rect" id="2_4" width="48" height="48" x="594" y="366" style="fill: rgb(160, 160, 160); stroke: black; stroke-width: 1; opacity: 0.8;"></rect><rect class="rect" id="2_5" width="48" height="48" x="602" y="374" style="fill: rgb(224, 224, 224); stroke: black; stroke-width: 1; opacity: 0.8;"></rect><rect class="rect" id="2_6" width="48" height="48" x="610" y="382" style="fill: rgb(160, 160, 160); stroke: black; stroke-width: 1; opacity: 0.8;"></rect><rect class="rect" id="2_7" width="48" height="48" x="618" y="390" style="fill: rgb(224, 224, 224); stroke: black; stroke-width: 1; opacity: 0.8;"></rect><rect class="rect" id="2_8" width="48" height="48" x="626" y="398" style="fill: rgb(160, 160, 160); stroke: black; stroke-width: 1; opacity: 0.8;"></rect><rect class="rect" id="2_9" width="48" height="48" x="634" y="406" style="fill: rgb(224, 224, 224); stroke: black; stroke-width: 1; opacity: 0.8;"></rect><rect class="rect" id="2_10" width="48" height="48" x="642" y="414" style="fill: rgb(160, 160, 160); stroke: black; stroke-width: 1; opacity: 0.8;"></rect><rect class="rect" id="2_11" width="48" height="48" x="650" y="422" style="fill: rgb(224, 224, 224); stroke: black; stroke-width: 1; opacity: 0.8;"></rect><rect class="rect" id="2_12" width="48" height="48" x="658" y="430" style="fill: rgb(160, 160, 160); stroke: black; stroke-width: 1; opacity: 0.8;"></rect><rect class="rect" id="2_13" width="48" height="48" x="666" y="438" style="fill: rgb(224, 224, 224); stroke: black; stroke-width: 1; opacity: 0.8;"></rect><rect class="rect" id="2_14" width="48" height="48" x="674" y="446" style="fill: rgb(160, 160, 160); stroke: black; stroke-width: 1; opacity: 0.8;"></rect><rect class="rect" id="2_15" width="48" height="48" x="682" y="454" style="fill: rgb(224, 224, 224); stroke: black; stroke-width: 1; opacity: 0.8;"></rect><rect class="rect" id="2_16" width="48" height="48" x="690" y="462" style="fill: rgb(160, 160, 160); stroke: black; stroke-width: 1; opacity: 0.8;"></rect><rect class="rect" id="2_17" width="48" height="48" x="698" y="470" style="fill: rgb(224, 224, 224); stroke: black; stroke-width: 1; opacity: 0.8;"></rect><rect class="rect" id="2_18" width="48" height="48" x="706" y="478" style="fill: rgb(160, 160, 160); stroke: black; stroke-width: 1; opacity: 0.8;"></rect><rect class="rect" id="2_19" width="48" height="48" x="714" y="486" style="fill: rgb(224, 224, 224); stroke: black; stroke-width: 1; opacity: 0.8;"></rect><rect class="rect" id="2_20" width="48" height="48" x="722" y="494" style="fill: rgb(160, 160, 160); stroke: black; stroke-width: 1; opacity: 0.8;"></rect><rect class="rect" id="2_21" width="48" height="48" x="730" y="502" style="fill: rgb(224, 224, 224); stroke: black; stroke-width: 1; opacity: 0.8;"></rect><rect class="rect" id="2_22" width="48" height="48" x="738" y="510" style="fill: rgb(160, 160, 160); stroke: black; stroke-width: 1; opacity: 0.8;"></rect><rect class="rect" id="2_23" width="48" height="48" x="746" y="518" style="fill: rgb(224, 224, 224); stroke: black; stroke-width: 1; opacity: 0.8;"></rect><rect class="rect" id="3_0" width="16" height="16" x="774" y="350" style="fill: rgb(160, 160, 160); stroke: black; stroke-width: 1; opacity: 0.8;"></rect><rect class="rect" id="3_1" width="16" height="16" x="782" y="358" style="fill: rgb(224, 224, 224); stroke: black; stroke-width: 1; opacity: 0.8;"></rect><rect class="rect" id="3_2" width="16" height="16" x="790" y="366" style="fill: rgb(160, 160, 160); stroke: black; stroke-width: 1; opacity: 0.8;"></rect><rect class="rect" id="3_3" width="16" height="16" x="798" y="374" style="fill: rgb(224, 224, 224); stroke: black; stroke-width: 1; opacity: 0.8;"></rect><rect class="rect" id="3_4" width="16" height="16" x="806" y="382" style="fill: rgb(160, 160, 160); stroke: black; stroke-width: 1; opacity: 0.8;"></rect><rect class="rect" id="3_5" width="16" height="16" x="814" y="390" style="fill: rgb(224, 224, 224); stroke: black; stroke-width: 1; opacity: 0.8;"></rect><rect class="rect" id="3_6" width="16" height="16" x="822" y="398" style="fill: rgb(160, 160, 160); stroke: black; stroke-width: 1; opacity: 0.8;"></rect><rect class="rect" id="3_7" width="16" height="16" x="830" y="406" style="fill: rgb(224, 224, 224); stroke: black; stroke-width: 1; opacity: 0.8;"></rect><rect class="rect" id="3_8" width="16" height="16" x="838" y="414" style="fill: rgb(160, 160, 160); stroke: black; stroke-width: 1; opacity: 0.8;"></rect><rect class="rect" id="3_9" width="16" height="16" x="846" y="422" style="fill: rgb(224, 224, 224); stroke: black; stroke-width: 1; opacity: 0.8;"></rect><rect class="rect" id="3_10" width="16" height="16" x="854" y="430" style="fill: rgb(160, 160, 160); stroke: black; stroke-width: 1; opacity: 0.8;"></rect><rect class="rect" id="3_11" width="16" height="16" x="862" y="438" style="fill: rgb(224, 224, 224); stroke: black; stroke-width: 1; opacity: 0.8;"></rect><rect class="rect" id="3_12" width="16" height="16" x="870" y="446" style="fill: rgb(160, 160, 160); stroke: black; stroke-width: 1; opacity: 0.8;"></rect><rect class="rect" id="3_13" width="16" height="16" x="878" y="454" style="fill: rgb(224, 224, 224); stroke: black; stroke-width: 1; opacity: 0.8;"></rect><rect class="rect" id="3_14" width="16" height="16" x="886" y="462" style="fill: rgb(160, 160, 160); stroke: black; stroke-width: 1; opacity: 0.8;"></rect><rect class="rect" id="3_15" width="16" height="16" x="894" y="470" style="fill: rgb(224, 224, 224); stroke: black; stroke-width: 1; opacity: 0.8;"></rect><rect class="rect" id="3_16" width="16" height="16" x="902" y="478" style="fill: rgb(160, 160, 160); stroke: black; stroke-width: 1; opacity: 0.8;"></rect><rect class="rect" id="3_17" width="16" height="16" x="910" y="486" style="fill: rgb(224, 224, 224); stroke: black; stroke-width: 1; opacity: 0.8;"></rect><rect class="rect" id="3_18" width="16" height="16" x="918" y="494" style="fill: rgb(160, 160, 160); stroke: black; stroke-width: 1; opacity: 0.8;"></rect><rect class="rect" id="3_19" width="16" height="16" x="926" y="502" style="fill: rgb(224, 224, 224); stroke: black; stroke-width: 1; opacity: 0.8;"></rect><rect class="rect" id="3_20" width="16" height="16" x="934" y="510" style="fill: rgb(160, 160, 160); stroke: black; stroke-width: 1; opacity: 0.8;"></rect><rect class="rect" id="3_21" width="16" height="16" x="942" y="518" style="fill: rgb(224, 224, 224); stroke: black; stroke-width: 1; opacity: 0.8;"></rect><rect class="rect" id="3_22" width="16" height="16" x="950" y="526" style="fill: rgb(160, 160, 160); stroke: black; stroke-width: 1; opacity: 0.8;"></rect><rect class="rect" id="3_23" width="16" height="16" x="958" y="534" style="fill: rgb(224, 224, 224); stroke: black; stroke-width: 1; opacity: 0.8;"></rect><rect class="conv" id="conv_0" width="8" height="8" x="303.3851923224288" y="445.3984740686533" style="fill-opacity: 0; stroke: black; stroke-width: 1; stroke-opacity: 0.8;"></rect><rect class="conv" id="conv_1" width="16" height="16" x="507.4075093484278" y="454.6560835020872" style="fill-opacity: 0; stroke: black; stroke-width: 1; stroke-opacity: 0.8;"></rect><rect class="conv" id="conv_2" width="8" height="8" x="766.2062567687533" y="551.4483545351003" style="fill-opacity: 0; stroke: black; stroke-width: 1; stroke-opacity: 0.8;"></rect><line class="link" id="conv_0" x1="311.3851923224288" y1="453.3984740686533" x2="509.00543590529537" y2="462.7458528366151" style="stroke: black; stroke-width: 0.5; stroke-opacity: 0.8;"></line><line class="link" id="conv_0" x1="311.3851923224288" y1="445.3984740686533" x2="509.00543590529537" y2="462.7458528366151" style="stroke: black; stroke-width: 0.5; stroke-opacity: 0.8;"></line><line class="link" id="conv_1" x1="523.4075093484278" y1="470.6560835020872" x2="765.4075093484278" y2="526.6560835020872" style="stroke: black; stroke-width: 0.5; stroke-opacity: 0.8;"></line><line class="link" id="conv_1" x1="523.4075093484278" y1="454.6560835020872" x2="765.4075093484278" y2="526.6560835020872" style="stroke: black; stroke-width: 0.5; stroke-opacity: 0.8;"></line><line class="link" id="conv_2" x1="774.2062567687533" y1="559.4483545351003" x2="966.0825027075014" y2="547.3793418140401" style="stroke: black; stroke-width: 0.5; stroke-opacity: 0.8;"></line><line class="link" id="conv_2" x1="774.2062567687533" y1="551.4483545351003" x2="966.0825027075014" y2="547.3793418140401" style="stroke: black; stroke-width: 0.5; stroke-opacity: 0.8;"></line><polygon class="poly" id="fc_0" points="954,322 964,322 1220,578 1210,578" style="fill: rgb(224, 224, 224); stroke: black; stroke-width: 1; opacity: 0.8;"></polygon><polygon class="poly" id="fc_1" points="1222,386 1232,386 1360,514 1350,514" style="fill: rgb(224, 224, 224); stroke: black; stroke-width: 1; opacity: 0.8;"></polygon><line class="line" id="fc_0" x1="974" y1="550" x2="1210" y2="578" style="stroke: black; stroke-width: 0.5; stroke-opacity: 0.8; opacity: 1;"></line><line class="line" id="fc_0" x1="790" y1="350" x2="954" y2="322" style="stroke: black; stroke-width: 0.5; stroke-opacity: 0.8; opacity: 1;"></line><line class="line" id="fc_1" x1="1220" y1="578" x2="1350" y2="514" style="stroke: black; stroke-width: 0.5; stroke-opacity: 0.8; opacity: 1;"></line><line class="line" id="fc_1" x1="964" y1="322" x2="1222" y2="386" style="stroke: black; stroke-width: 0.5; stroke-opacity: 0.8; opacity: 1;"></line><text class="text" dy=".35em" font-family="sans-serif" x="427" y="614" style="font-size: 16px; opacity: 1;">Max-Pool</text><text class="text" dy=".35em" font-family="sans-serif" x="600" y="614" style="font-size: 16px; opacity: 1;">Convolution</text><text class="text" dy=".35em" font-family="sans-serif" x="819" y="614" style="font-size: 16px; opacity: 1;">Max-Pool</text><text class="text" dy=".35em" font-family="sans-serif" x="1013" y="614" style="font-size: 16px; opacity: 1;">Dense</text><text class="info" dy="-0.3em" font-family="sans-serif" x="208" y="343" style="font-size: 16px;">8@128x128</text><text class="info" dy="-0.3em" font-family="sans-serif" x="432" y="375" style="font-size: 16px;">8@64x64</text><text class="info" dy="-0.3em" font-family="sans-serif" x="562" y="319" style="font-size: 16px;">24@48x48</text><text class="info" dy="-0.3em" font-family="sans-serif" x="774" y="335" style="font-size: 16px;">24@16x16</text><text class="info" dy="-0.3em" font-family="sans-serif" x="954" y="307" style="font-size: 16px;">1x256</text><text class="info" dy="-0.3em" font-family="sans-serif" x="1222" y="371" style="font-size: 16px;">1x128</text></g></svg>